<?xml version="1.0" encoding="utf-8"?>
<!-- Generator: Adobe Illustrator 21.0.0, SVG Export Plug-In . SVG Version: 6.00 Build 0)  -->
<svg version="1.1" xmlns="http://www.w3.org/2000/svg" xmlns:xlink="http://www.w3.org/1999/xlink" x="0px" y="0px"
	 viewBox="0 0 24 24" enable-background="new 0 0 24 24" xml:space="preserve">
<path fill="#C8C8C8" d="M20.1,21.8v-9.2h3.5L12,2.2L0.5,12.6h3.5v9.2H20.1z"/>
<path fill="#7F0000" d="M16.6,10.7H7.4V9.6h9.2V10.7z M15.4,7.3H8.6v1.1h6.9C15.4,8.4,15.4,7.3,15.4,7.3z M17.7,13v4.6
	c0,0.7-0.5,1.1-1.1,1.1H7.4c-0.7,0-1.1-0.5-1.1-1.1V13c0-0.7,0.5-1.2,1.1-1.2h9.2C17.3,11.8,17.7,12.4,17.7,13z M14.3,15.3l-3.4-1.9
	v3.7L14.3,15.3z"/>
</svg>
