<?xml version="1.0" encoding="UTF-8" standalone="no"?><!DOCTYPE svg PUBLIC "-//W3C//DTD SVG 1.1//EN" "http://www.w3.org/Graphics/SVG/1.1/DTD/svg11.dtd"><svg width="100%" height="100%" viewBox="0 0 256 256" version="1.1" xmlns="http://www.w3.org/2000/svg" xmlns:xlink="http://www.w3.org/1999/xlink" xml:space="preserve" xmlns:serif="http://www.serif.com/" style="fill-rule:evenodd;clip-rule:evenodd;stroke-linejoin:round;stroke-miterlimit:2;"><g transform="matrix(10.6667,0,0,10.6667,0,0)"><path d="M4,21L4,10.08L12,3.12L20,10.08L20,21L4,21Z" style="fill:rgb(200,200,200);fill-rule:nonzero;"/></g><g transform="matrix(7.39766,0,0,7.39766,39.228,56.6108)"><path d="M10,18L10,12L15,15L10,18ZM17,3L7,3L7,4L17,4L17,3ZM20,6L4,6L4,7L20,7L20,6ZM22,9L2,9L2,21L22,21L22,9ZM3,10L21,10L21,20L3,20L3,10Z" style="fill:rgb(127,0,0);fill-rule:nonzero;"/></g></svg>